HIERARCHY
ROOT SimulationBone
{
	OFFSET 0.000000 0.000000 0.000000
	CHANNELS 6 Xposition Yposition Zposition Zrotation Yrotation Xrotation 
	JOINT Hips
	{
		OFFSET 0.000000 0.000000 0.000000
		CHANNELS 6 Xposition Yposition Zposition Zrotation Yrotation Xrotation 
		JOINT RightUpLeg
		{
			OFFSET 0.103458 1.857831 10.548505
			CHANNELS 3 Zrotation Yrotation Xrotation
			JOINT RightLeg
			{
				OFFSET 43.500000 -0.000031 0.000002
				CHANNELS 3 Zrotation Yrotation Xrotation
				JOINT RightFoot
				{
					OFFSET 42.372200 0.000023 0.000003
					CHANNELS 3 Zrotation Yrotation Xrotation
					JOINT RightToe
					{
						OFFSET 17.299997 -0.000001 -0.000010
						CHANNELS 3 Zrotation Yrotation Xrotation
						End Site
						{
							OFFSET 0.000000 0.000000 0.000000
						}
					}
				}
			}
		}
		JOINT LeftUpLeg
		{
			OFFSET 0.103457 1.857828 -10.548510
			CHANNELS 3 Zrotation Yrotation Xrotation
			JOINT LeftLeg
			{
				OFFSET 43.500046 -0.000015 0.000002
				CHANNELS 3 Zrotation Yrotation Xrotation
				JOINT LeftFoot
				{
					OFFSET 42.372261 -0.000008 0.000023
					CHANNELS 3 Zrotation Yrotation Xrotation
					JOINT LeftToe
					{
						OFFSET 17.299990 -0.000007 -0.000002
						CHANNELS 3 Zrotation Yrotation Xrotation
						End Site
						{
							OFFSET 0.000000 0.000000 0.000000
						}
					}
				}
			}
		}
		JOINT Spine
		{
			OFFSET 6.901967 -2.603726 -0.000001
			CHANNELS 3 Zrotation Yrotation Xrotation
			JOINT Spine1
			{
				OFFSET 12.588100 -0.000009 -0.000003
				CHANNELS 3 Zrotation Yrotation Xrotation
				JOINT Spine2
				{
					OFFSET 12.343202 0.000008 0.000008
					CHANNELS 3 Zrotation Yrotation Xrotation
					JOINT Neck
					{
						OFFSET 25.832897 -0.000015 -0.000004
						CHANNELS 3 Zrotation Yrotation Xrotation
						JOINT Head
						{
							OFFSET 11.766609 0.000013 -0.000006
							CHANNELS 3 Zrotation Yrotation Xrotation
							End Site
							{
								OFFSET 0.000000 0.000000 0.000000
							}
						}
					}
					JOINT RightShoulder
					{
						OFFSET 19.745911 -1.480373 6.000098
						CHANNELS 3 Zrotation Yrotation Xrotation
						JOINT RightArm
						{
							OFFSET 11.284123 -0.000007 -0.000032
							CHANNELS 3 Zrotation Yrotation Xrotation
							JOINT RightForeArm
							{
								OFFSET 33.000050 0.000005 0.000031
								CHANNELS 3 Zrotation Yrotation Xrotation
								JOINT RightHand
								{
									OFFSET 25.200008 0.000017 0.000013
									CHANNELS 3 Zrotation Yrotation Xrotation
									End Site
									{
										OFFSET 0.000000 0.000000 0.000000
									}
								}
							}
						}
					}
					JOINT LeftShoulder
					{
						OFFSET 19.746092 -1.480379 -6.000077
						CHANNELS 3 Zrotation Yrotation Xrotation
						JOINT LeftArm
						{
							OFFSET 11.284136 -0.000017 -0.000017
							CHANNELS 3 Zrotation Yrotation Xrotation
							JOINT LeftForeArm
							{
								OFFSET 33.000099 0.000019 0.000015
								CHANNELS 3 Zrotation Yrotation Xrotation
								JOINT LeftHand
								{
									OFFSET 25.199780 0.000140 0.000408
									CHANNELS 3 Zrotation Yrotation Xrotation
									End Site
									{
										OFFSET 0.000000 0.000000 0.000000
									}
								}
							}
						}
					}
				}
			}
		}
	}
}
MOTION
Frames: 10
Frame Time: 0.016667
207.395995 0.000000 -139.414571 180.000000 84.759386 180.000000 -0.000149 88.683678 0.001182 93.991572 -0.790385 -178.242840 -179.074500 8.191160 -175.274775 -23.169469 -5.052395 -6.859428 87.101410 6.241156 8.299728 21.454558 0.003106 0.000015 148.674894 7.373365 -178.397624 -68.817438 -0.463157 5.843531 68.108131 -2.496037 4.844111 21.454555 -0.003099 0.000002 7.977086 -0.402246 -1.127723 5.948867 -0.746208 -2.274544 5.631018 -0.760056 -2.270018 11.128720 12.092090 23.661888 -12.864494 -16.678447 30.725510 -164.936150 -73.101191 -16.866247 -14.880390 59.025734 28.846350 -53.356988 -20.634991 2.272020 -4.032221 -20.245680 19.916337 -167.658296 76.108576 14.105103 -5.979399 -62.476172 -26.914226 -25.909288 14.681687 -1.138274 2.945071 4.051614 -23.701022 
207.461452 0.000000 -141.765512 180.000000 83.864590 180.000000 -0.141406 88.490112 0.016634 93.868752 -0.887308 -177.735384 -177.624342 7.804395 -174.332328 -23.030758 -5.356102 -6.414664 87.915278 5.891042 8.353547 21.454560 0.003106 0.000017 147.848350 7.626196 -178.804203 -63.792361 -0.358253 5.731275 67.747423 -2.432039 4.849452 21.454555 -0.003091 0.000000 8.022174 -0.391792 -1.222395 6.039373 -0.719492 -2.463499 5.721579 -0.734491 -2.459124 11.280488 12.465703 24.325246 -13.412090 -17.168147 31.678157 -165.922684 -73.259792 -15.852639 -17.456007 57.948921 26.082371 -55.757463 -20.355202 2.339080 -5.145692 -20.075091 21.449243 -167.695336 75.911407 14.067703 -1.750458 -62.094395 -30.585559 -25.276178 14.395180 -1.107912 2.118302 2.739381 -26.851762 
207.505107 0.000000 -144.114272 180.000000 82.979722 180.000000 -0.307849 88.321141 0.005308 93.730582 -0.937394 -177.349543 -176.139405 7.329971 -173.555801 -22.697321 -5.629414 -5.955614 88.499923 5.555790 8.427617 21.454560 0.003109 0.000019 147.556202 7.891749 -179.732268 -57.621041 0.251866 5.961295 66.769062 -2.462308 5.280692 21.454554 -0.003086 -0.000000 8.082743 -0.378569 -1.273069 6.160466 -0.689061 -2.564433 5.842711 -0.704676 -2.560229 11.397572 12.710647 24.868905 -13.993615 -17.481683 32.457336 -166.905145 -73.481551 -14.843486 -20.004167 56.962575 23.112556 -57.935536 -20.069994 2.399450 -6.264221 -19.443810 22.664029 -167.524658 75.785262 14.242453 1.970593 -61.710412 -34.244417 -24.717571 14.226523 -1.087666 1.257915 1.716659 -31.305949 
207.524079 0.000000 -146.456883 180.000000 82.106720 180.000000 -0.468259 88.137772 -0.027348 93.539047 -1.013020 -177.098585 -174.652090 6.853306 -173.062199 -22.223298 -5.830412 -5.428620 88.916331 5.192487 8.528781 21.454560 0.003113 0.000020 147.716609 8.100493 179.525129 -50.527597 0.585271 6.169730 65.962004 -2.395800 5.742688 21.454553 -0.003087 0.000000 8.133214 -0.376668 -1.301780 6.261492 -0.682571 -2.621994 5.943758 -0.698533 -2.617822 11.501028 12.820545 25.336295 -14.469028 -17.634082 33.079493 -167.376612 -73.550827 -14.359575 -22.430016 55.926229 20.192113 -59.946759 -19.745445 2.453964 -7.014404 -18.509860 23.671230 -167.237714 75.776484 14.535803 5.375046 -61.376829 -38.141456 -24.235367 14.237436 -1.081789 0.426374 0.796068 -35.617837 
207.514549 0.000000 -148.793845 180.000000 81.246519 180.000000 -0.595934 87.902358 -0.070164 93.271949 -1.169055 -176.981438 -173.188717 6.443580 -172.890811 -21.677507 -5.945003 -4.812215 89.241772 4.779215 8.656377 21.454558 0.003113 0.000019 148.253944 8.183838 179.562322 -42.748655 0.057712 5.841412 65.914402 -2.093905 5.808951 21.454551 -0.003095 0.000001 8.149771 -0.396589 -1.330014 6.295241 -0.720473 -2.679594 5.977514 -0.736774 -2.675197 11.640657 12.823036 25.769902 -14.708451 -17.675212 33.573225 -167.024760 -73.308284 -14.721391 -24.539600 54.751801 17.617000 -61.847429 -19.352888 2.501162 -7.097488 -17.464770 24.616607 -166.934602 75.888506 14.845294 8.672506 -61.063769 -42.359067 -23.890625 14.449335 -1.090462 -0.317892 -0.218252 -38.394473 
207.474092 0.000000 -151.123538 180.000000 80.398204 180.000000 -0.711858 87.687263 -0.113013 92.998536 -1.230746 -176.975000 -171.650399 5.920107 -172.722056 -20.906427 -6.096351 -4.279511 89.390592 4.441018 8.794933 21.454558 0.003112 0.000018 149.331102 8.095088 179.480405 -34.020475 -0.455015 5.322894 65.490687 -1.822636 5.570456 21.454551 -0.003103 -0.000000 8.148567 -0.401350 -1.347497 6.293066 -0.729075 -2.714787 5.975336 -0.745580 -2.710343 11.811078 12.751805 26.159101 -14.723272 -17.576870 33.922338 -166.697978 -73.011522 -15.057962 -26.084328 53.698990 15.375866 -63.561856 -18.919189 2.537992 -6.928342 -16.399047 25.517567 -166.353218 76.024194 15.439006 11.606501 -60.697273 -45.818553 -23.755524 14.587197 -1.096941 -0.648533 -1.335772 -39.836463 
207.402881 0.000000 -153.441522 180.000000 79.559870 180.000000 -0.832090 87.550391 -0.149997 92.785522 -1.052059 -177.061444 -169.970778 5.129830 -172.276242 -19.826334 -6.381870 -3.996221 89.291661 4.292897 8.922916 21.454558 0.003113 0.000019 150.988984 7.866770 178.217897 -24.358741 -0.129106 5.276533 63.779070 -1.878530 5.246873 21.454552 -0.003103 -0.000002 8.149933 -0.360823 -1.343459 6.294801 -0.648280 -2.704523 5.977065 -0.664723 -2.700564 12.002260 12.658282 26.491407 -14.577349 -17.342951 34.133298 -167.148401 -72.942900 -14.595731 -26.933113 53.042583 13.346511 -65.019891 -18.483252 2.565632 -6.959138 -15.392722 26.311647 -165.297987 76.084935 16.517095 13.883133 -60.268371 -47.546608 -23.841728 14.406071 -1.086973 -0.279982 -2.521830 -40.423870 
207.301562 0.000000 -155.745245 180.000000 78.730644 180.000000 -0.916543 87.381783 -0.177393 92.620604 -0.839655 -177.255437 -168.306202 4.348100 -171.735189 -18.851795 -6.663358 -3.886387 89.091204 4.259974 9.001721 21.454558 0.003112 0.000019 152.542234 7.705299 175.574698 -15.501702 0.777493 5.762662 62.477153 -2.249698 5.084035 21.454553 -0.003096 -0.000003 8.151049 -0.319847 -1.336884 6.296016 -0.566731 -2.689161 5.978277 -0.583083 -2.685692 12.239660 12.657030 26.799843 -14.402159 -17.189954 34.343864 -167.857403 -73.048849 -13.867449 -27.258825 52.758824 11.497047 -66.300850 -18.075898 2.589476 -7.097494 -14.640314 26.817070 -164.199154 76.080106 17.640011 15.478208 -59.799110 -48.114507 -23.906632 14.078201 -1.066736 0.587364 -3.731200 -40.134959 
207.170191 0.000000 -158.033086 180.000000 77.912039 180.000000 -0.924611 87.069156 -0.186805 92.482337 -0.813288 -177.566393 -166.837987 3.872979 -171.359709 -18.452521 -6.776540 -3.803114 88.938273 4.223535 8.991766 21.454557 0.003108 0.000018 153.305100 7.739196 171.997141 -9.251933 1.853084 6.442560 63.241689 -2.716831 5.309106 21.454551 -0.003088 -0.000001 8.142889 -0.323726 -1.348667 6.279848 -0.574041 -2.712876 5.962115 -0.590537 -2.709370 12.556272 12.802845 27.121327 -14.318440 -17.303863 34.676950 -168.175206 -73.202111 -13.540881 -27.236247 52.745686 9.865121 -67.487333 -17.726794 2.613843 -7.089253 -14.260548 26.894933 -163.531559 76.060726 18.322354 16.466802 -59.280511 -48.328283 -23.758400 13.838351 -1.049081 1.627639 -4.916223 -38.986396 
207.009603 0.000000 -160.301236 180.000000 77.107082 180.000000 -0.864979 86.658783 -0.161167 92.361458 -0.888857 -177.962924 -165.675965 3.606290 -171.355117 -18.816247 -6.681040 -3.594211 88.778101 4.082797 8.869061 21.454557 0.003107 0.000016 153.359165 7.807092 169.637187 -5.936938 2.809809 6.630463 64.974298 -2.630413 6.147151 21.454551 -0.003086 0.000001 8.114900 -0.344660 -1.377553 6.224515 -0.614989 -2.771599 5.906802 -0.631842 -2.767853 12.974337 12.850144 27.457561 -14.335664 -17.535665 35.071996 -168.183299 -73.293417 -13.532387 -26.862937 52.915413 8.551629 -68.527663 -17.469880 2.638540 -6.546621 -13.927108 26.660838 -163.340148 76.105412 18.517522 17.128737 -58.707380 -48.454972 -23.660370 13.754789 -1.042480 2.539822 -5.942139 -37.688553 
